<svg width="1200" height="760" viewBox="0 0 1200 760" fill="none" xmlns="http://www.w3.org/2000/svg">
  <rect width="1200" height="760" fill="#4C6FFF"/>
  <path d="M0 120L1200 0V174L0 294V120Z" fill="#D8FF52"/>
  <path d="M0 646L1200 526V760H0V646Z" fill="#FF715B"/>
  <rect x="75" y="110" width="1050" height="540" rx="22" fill="#F8F5EE" stroke="#17211C" stroke-width="8"/>
  <rect x="75" y="110" width="1050" height="78" rx="22" fill="#17211C"/>
  <text x="117" y="160" fill="#D8FF52" font-family="Arial, sans-serif" font-weight="800" font-size="28">TaskTrail</text>
  <rect x="860" y="130" width="216" height="38" rx="19" fill="#F8F5EE"/>
  <circle cx="1047" cy="149" r="13" fill="#FF715B"/>
  <text x="885" y="155" fill="#17211C" font-family="Arial, sans-serif" font-weight="700" font-size="14">Create a task</text>
  <rect x="112" y="222" width="302" height="383" rx="16" fill="#E8E1D5"/>
  <rect x="449" y="222" width="302" height="383" rx="16" fill="#E8E1D5"/>
  <rect x="786" y="222" width="302" height="383" rx="16" fill="#E8E1D5"/>
  <text x="140" y="265" fill="#17211C" font-family="Arial, sans-serif" font-weight="800" font-size="20">TO DO</text>
  <circle cx="378" cy="256" r="16" fill="#F8F5EE"/><text x="373" y="262" fill="#17211C" font-family="Arial" font-size="15">3</text>
  <text x="477" y="265" fill="#17211C" font-family="Arial, sans-serif" font-weight="800" font-size="20">IN PROGRESS</text>
  <circle cx="716" cy="256" r="16" fill="#D8FF52"/><text x="711" y="262" fill="#17211C" font-family="Arial" font-size="15">2</text>
  <text x="814" y="265" fill="#17211C" font-family="Arial, sans-serif" font-weight="800" font-size="20">DONE</text>
  <circle cx="1053" cy="256" r="16" fill="#F8F5EE"/><text x="1048" y="262" fill="#17211C" font-family="Arial" font-size="15">4</text>
  <g>
    <rect x="136" y="296" width="254" height="112" rx="13" fill="white" stroke="#17211C" stroke-width="3"/>
    <rect x="154" y="317" width="75" height="18" rx="9" fill="#FF715B"/>
    <rect x="154" y="353" width="196" height="13" rx="6.5" fill="#17211C"/>
    <rect x="154" y="378" width="142" height="10" rx="5" fill="#B6BAB7"/>
    <rect x="136" y="430" width="254" height="137" rx="13" fill="#D8FF52" stroke="#17211C" stroke-width="3"/>
    <circle cx="358" cy="458" r="14" fill="#17211C"/>
    <rect x="154" y="452" width="90" height="16" rx="8" fill="#17211C"/>
    <rect x="154" y="490" width="196" height="13" rx="6.5" fill="#17211C"/>
    <rect x="154" y="518" width="124" height="10" rx="5" fill="#17211C" fill-opacity=".45"/>
  </g>
  <g>
    <rect x="473" y="296" width="254" height="148" rx="13" fill="#4C6FFF" stroke="#17211C" stroke-width="3"/>
    <rect x="491" y="317" width="92" height="18" rx="9" fill="#D8FF52"/>
    <rect x="491" y="358" width="196" height="13" rx="6.5" fill="white"/>
    <rect x="491" y="386" width="148" height="10" rx="5" fill="white" fill-opacity=".55"/>
    <circle cx="507" cy="421" r="12" fill="#FF715B"/><circle cx="529" cy="421" r="12" fill="#F8F5EE"/>
    <rect x="473" y="466" width="254" height="101" rx="13" fill="white" stroke="#17211C" stroke-width="3"/>
    <rect x="491" y="488" width="170" height="13" rx="6.5" fill="#17211C"/>
    <rect x="491" y="518" width="132" height="10" rx="5" fill="#B6BAB7"/>
  </g>
  <g>
    <rect x="810" y="296" width="254" height="113" rx="13" fill="white" stroke="#17211C" stroke-width="3"/>
    <circle cx="838" cy="329" r="14" fill="#D8FF52" stroke="#17211C" stroke-width="3"/>
    <path d="M831 329L837 335L846 322" stroke="#17211C" stroke-width="3" stroke-linecap="round" stroke-linejoin="round"/>
    <rect x="866" y="322" width="165" height="13" rx="6.5" fill="#17211C"/>
    <rect x="866" y="352" width="122" height="10" rx="5" fill="#B6BAB7"/>
    <rect x="810" y="432" width="254" height="135" rx="13" fill="#FF715B" stroke="#17211C" stroke-width="3"/>
    <circle cx="838" cy="466" r="14" fill="#D8FF52" stroke="#17211C" stroke-width="3"/>
    <path d="M831 466L837 472L846 459" stroke="#17211C" stroke-width="3" stroke-linecap="round" stroke-linejoin="round"/>
    <rect x="866" y="459" width="165" height="13" rx="6.5" fill="#17211C"/>
    <rect x="866" y="490" width="122" height="10" rx="5" fill="#17211C" fill-opacity=".45"/>
  </g>
</svg>